<svg width="51" height="50" viewBox="0 0 51 50" fill="none" xmlns="http://www.w3.org/2000/svg">
<rect x="3.14675" y="2.27273" width="45.4545" height="45.4545" rx="9.09091" stroke="white" stroke-width="4.54545"/>
<path d="M35.3945 20.5687C28.3566 20.5687 28.347 27.5779 28.347 27.6163C28.347 27.6163 27.8675 34.6351 35.3945 34.6351C35.3945 34.6351 41.675 34.9898 41.675 29.7545H38.4533C38.4533 29.7545 38.5587 31.7297 35.5096 31.7297C35.5096 31.7297 32.2878 31.9407 32.2878 28.5464H41.7901C41.7901 28.5464 42.8352 20.5783 35.4041 20.5783L35.3945 20.5687ZM32.2399 26.0821C32.2399 26.0821 32.633 23.2631 35.4616 23.2631C38.2998 23.2631 38.2519 26.0821 38.2519 26.0821H32.2303H32.2399ZM24.1856 24.2795C24.1856 24.2795 26.9758 24.0781 26.9758 20.7892C26.9758 17.51 24.6937 15.9087 21.7884 15.9087H12.2383V34.2611H21.7788C21.7788 34.2611 27.6087 34.4433 27.6087 28.8436C27.6087 28.8436 27.858 24.2891 24.176 24.2891L24.1856 24.2795ZM16.4572 19.1592H21.798C21.798 19.1592 23.0925 19.1592 23.0925 21.0673C23.0925 22.9754 22.335 23.2535 21.472 23.2535H16.4668V19.1592H16.4572ZM21.5295 30.9914H16.4572V26.0821H21.798C21.798 26.0821 23.7349 26.0629 23.7253 28.6135C23.7253 30.7613 22.287 30.9818 21.5295 31.001V30.9914ZM31.4536 16.9826V19.2455H39.0286V16.9826H31.4536Z" fill="white"/>
</svg>
