<svg width="49" height="35" viewBox="0 0 49 35" fill="none" xmlns="http://www.w3.org/2000/svg">
<path d="M0 31.5094V3.06204C0 3.02912 0.0472287 2.71633 0.141686 2.12367L16.1522 16.4461L0.188915 32.4971C0.0629716 32.0362 0 31.7069 0 31.5094ZM2.12529 0.148163C2.34569 0.0493877 2.61332 0 2.92818 0H46.048C46.3314 0 46.6147 0.0493877 46.8981 0.148163L30.8404 14.52L28.7151 16.298L24.5117 19.9033L20.3084 16.298L18.1831 14.52L2.12529 0.148163ZM2.17252 34.4233L18.2775 18.2735L24.5117 23.558L30.7459 18.2735L46.8509 34.4233C46.599 34.522 46.3314 34.5714 46.048 34.5714H2.92818C2.67629 34.5714 2.42441 34.522 2.17252 34.4233ZM32.8712 16.4461L48.8345 2.12367C48.929 2.42 48.9762 2.73279 48.9762 3.06204V31.5094C48.9762 31.8057 48.929 32.135 48.8345 32.4971L32.8712 16.4461Z" fill="white"/>
</svg>
