<svg width="441" height="440" viewBox="0 0 441 440" fill="none" xmlns="http://www.w3.org/2000/svg">
<rect x="0.837891" width="439.749" height="440" rx="219.875" fill="#EBE3F8"/>
<path d="M289.419 80.0023L283.984 151.243L264.52 112.796L282.684 168.288L282.315 173.118H284.265L284.855 174.92L289.053 173.18L287.317 177.375L289.11 177.963V179.919L293.951 179.549L349.405 197.721L310.984 178.248L382.174 172.811L311.039 167.377L349.364 147.952L311.813 160.258L371.403 90.7787L301.98 150.388L314.27 112.843L294.851 151.199L289.419 80.0023Z" fill="#29196D"/>
<path fill-rule="evenodd" clip-rule="evenodd" d="M289.419 82.3757L284.115 151.902L265.427 114.989L282.867 168.266L282.51 172.938H284.396L284.966 174.679L289.387 172.846L287.558 177.264L289.291 177.832V179.724L293.973 179.366L347.214 196.814L310.327 178.117L379.803 172.811L310.381 167.508L347.173 148.86L311.256 160.63L369.726 92.4564L301.608 150.946L313.362 115.036L294.72 151.857L289.419 82.3757ZM283.853 150.585L289.239 79.9885L289.6 79.9885L294.982 150.541L314.109 112.762L314.442 112.899L302.353 149.83L371.285 90.6417L371.54 90.8962L312.371 159.885L349.308 147.78L349.445 148.113L311.696 167.246L382.187 172.63V172.991L311.642 178.379L349.486 197.56L349.349 197.893L293.929 179.732L288.93 180.113V178.093L287.075 177.486L288.72 173.514L284.744 175.161L284.134 173.299H282.121L282.501 168.31L264.348 112.853L264.681 112.715L283.853 150.585Z" fill="#EBE3F8"/>
<path d="M204.484 189.313V295.519C204.484 300.027 206.617 301.922 210.166 301.922C226.095 302.099 242.105 302.01 258.07 301.922C284.407 289.888 307.453 268.707 328.099 237.635L329.79 235.049C322.639 219.5 306.497 211.716 305.789 206.58C305.32 203.499 316.913 193.785 319.064 177.899C321.904 157.745 299.178 138.309 274.814 136.175C261.318 134.988 245.459 135.936 231.733 135.936C220.608 135.936 195.519 153.716 186.527 161.305C174.899 171.063 204.484 161.579 204.484 189.313ZM256.796 156.125H266.265C278.575 156.125 286.142 164.9 286.142 177.456C286.142 189.791 278.805 199.036 266.495 199.036H256.76C244.689 199.036 237.591 189.074 237.591 177.456C237.591 165.839 244.963 156.125 256.796 156.125ZM237.6 244.55C237.6 232.224 241.618 219.42 256.53 219.42H266.265C285.195 219.42 299.638 232.702 299.638 251.9C299.16 273.001 280.965 281.803 266.734 281.803H256.557C240.698 281.803 237.6 267.547 237.6 254.982V244.55Z" fill="#29196D"/>
<path fill-rule="evenodd" clip-rule="evenodd" d="M328.099 237.635C307.453 268.707 284.407 289.888 258.07 301.922C242.105 302.01 226.095 302.099 210.166 301.922C206.617 301.922 204.484 300.027 204.484 295.519V189.313C204.484 173.024 194.278 169.574 188.211 167.523C183.948 166.082 181.729 165.332 186.527 161.305C195.519 153.716 220.608 135.936 231.733 135.936C235.884 135.936 240.231 135.849 244.649 135.761C254.836 135.558 265.4 135.347 274.814 136.175C299.178 138.309 321.904 157.745 319.064 177.899C317.669 188.203 312.301 195.911 308.829 200.896C306.948 203.596 305.624 205.498 305.789 206.58C306.08 208.693 308.982 211.253 312.796 214.618C318.255 219.433 325.58 225.895 329.79 235.049L328.099 237.635ZM324.982 178.715C323.734 187.906 319.776 195.167 316.458 200.289C315.627 201.572 314.825 202.736 314.121 203.749C313.979 203.954 313.843 204.15 313.712 204.337C313.223 205.04 312.81 205.632 312.45 206.171C312.615 206.345 312.804 206.537 313.019 206.748C314.027 207.738 315.177 208.752 316.569 209.978C317.409 210.719 318.338 211.538 319.377 212.476C324.522 217.122 331.112 223.626 335.217 232.553L336.597 235.554L333.087 240.922L333.075 240.941C311.989 272.674 288.16 294.741 260.553 307.355L259.386 307.888L258.103 307.895C242.156 307.984 226.106 308.073 210.128 307.895C207.338 307.889 204.105 307.119 201.645 304.507C199.236 301.949 198.51 298.615 198.51 295.519V189.313C198.51 183.511 196.993 180.313 195.422 178.395C193.769 176.377 191.528 175.129 188.976 174.134C188.065 173.779 187.283 173.515 186.446 173.233C186.027 173.091 185.594 172.945 185.124 172.781L185.084 172.767C184.069 172.411 182.162 171.743 180.681 170.551C179.806 169.847 178.675 168.651 178.137 166.829C177.577 164.931 177.901 163.182 178.447 161.873C179.357 159.691 181.203 157.975 182.681 156.734C187.413 152.741 196.173 146.228 205.205 140.683C209.728 137.907 214.44 135.298 218.834 133.365C223.054 131.508 227.655 129.962 231.733 129.962C235.621 129.962 239.809 129.879 244.135 129.793C254.465 129.588 265.588 129.367 275.335 130.224M311.487 205.006C311.487 205.006 311.493 205.016 311.502 205.034C311.491 205.015 311.487 205.006 311.487 205.006ZM311.557 207.625C311.513 207.749 311.493 207.763 311.549 207.643C311.551 207.637 311.554 207.631 311.557 207.625ZM324.982 178.715C326.759 166.051 320.438 154.333 311.169 145.868C301.845 137.354 288.846 131.407 275.337 130.224M266.265 162.099H256.796C249.1 162.099 243.565 168.233 243.565 177.456C243.565 182.098 244.987 186.074 247.24 188.78C249.404 191.379 252.523 193.062 256.76 193.062H266.495C271.044 193.062 274.276 191.409 276.44 188.937C278.681 186.377 280.168 182.472 280.168 177.456C280.168 172.361 278.644 168.562 276.405 166.106C274.223 163.713 270.921 162.099 266.265 162.099ZM246.585 230.455C244.533 233.847 243.574 238.856 243.574 244.55V254.982C243.574 260.982 244.351 266.472 246.395 270.279C247.363 272.082 248.553 273.39 250.008 274.275C251.456 275.156 253.514 275.829 256.557 275.829H266.734C272.744 275.829 279.534 273.943 284.736 270.003C289.742 266.212 293.451 260.421 293.664 251.832C293.631 236.215 282.123 225.394 266.265 225.394H256.53C251.16 225.394 248.368 227.506 246.585 230.455ZM299.638 251.9C299.638 232.702 285.195 219.42 266.265 219.42H256.53C241.618 219.42 237.6 232.224 237.6 244.55V254.982C237.6 267.547 240.698 281.803 256.557 281.803H266.734C280.965 281.803 299.16 273.001 299.638 251.9ZM266.265 156.125H256.796C244.963 156.125 237.591 165.839 237.591 177.456C237.591 189.074 244.689 199.036 256.76 199.036H266.495C278.805 199.036 286.142 189.791 286.142 177.456C286.142 164.9 278.575 156.125 266.265 156.125Z" fill="#EBE3F8"/>
<path d="M241.091 312.98C279.712 301.938 308.784 274.7 331.794 240.166C337.014 252.821 334.542 272.606 307.509 300.849C276.393 328.716 235.038 349.729 193.762 356.99V356.821C159.53 365.207 132.211 361.178 130.927 332.638V221.854C130.927 183.981 95.8728 187.125 103.227 173.541C112.608 165.43 176.221 114.895 175.894 142.407V302.824C175.894 313.166 182.133 318.178 191.965 319.746C200.762 321.145 210.877 319.312 219.541 317.842C226.808 316.617 234.002 314.994 241.091 312.98Z" fill="#29196D"/>
<path fill-rule="evenodd" clip-rule="evenodd" d="M194.653 356.831C235.632 349.426 276.617 328.515 307.509 300.849C333.832 273.349 336.867 253.867 332.189 241.179C332.063 240.836 331.931 240.499 331.794 240.166C331.594 240.466 331.394 240.765 331.193 241.064C308.278 275.172 279.377 302.034 241.091 312.98C234.002 314.994 226.808 316.617 219.541 317.842C219.219 317.896 218.895 317.952 218.57 318.007C210.127 319.444 200.435 321.093 191.965 319.746C182.133 318.178 175.894 313.166 175.894 302.824V142.407C176.221 114.895 112.608 165.43 103.227 173.541C100.203 179.127 104.35 181.884 110.282 185.828C118.775 191.475 130.927 199.555 130.927 221.854V332.638C132.199 360.93 159.057 365.135 192.87 357.037C192.937 357.021 193.003 357.006 193.069 356.99C193.29 356.936 193.511 356.883 193.733 356.828C193.743 356.826 193.752 356.824 193.762 356.821V356.99C193.775 356.987 193.788 356.985 193.801 356.983C194.085 356.933 194.369 356.882 194.653 356.831ZM194.653 355.925C235.395 348.528 276.154 327.725 306.889 300.208C332.656 273.279 335.758 254.341 331.57 242.099C308.644 276.055 279.692 302.871 241.336 313.837L241.334 313.838C234.214 315.86 226.989 317.49 219.69 318.72C219.351 318.778 219.01 318.836 218.666 318.895C210.267 320.324 200.444 321.997 191.825 320.626C186.805 319.826 182.586 318.129 179.617 315.211C176.628 312.272 175.002 308.188 175.002 302.824V142.397C175.041 139.114 174.129 137.238 172.731 136.238C171.291 135.207 169.087 134.921 166.141 135.404C160.26 136.37 152.173 140.278 143.659 145.38C126.832 155.464 108.796 169.925 103.935 174.107C103.149 175.612 102.983 176.793 103.18 177.791C103.386 178.835 104.018 179.821 105.076 180.859C106.139 181.9 107.564 182.928 109.259 184.073C109.739 184.398 110.242 184.732 110.761 185.077C112.046 185.931 113.433 186.853 114.84 187.866C118.81 190.724 123.069 194.389 126.327 199.777C129.591 205.173 131.818 212.24 131.818 221.854V332.618C132.136 339.6 134.039 345.01 137.179 349.093C140.322 353.18 144.758 356.006 150.255 357.726C161.289 361.179 176.483 360.137 193.55 355.956L194.653 355.685V355.925Z" fill="#EBE3F8"/>
</svg>
