<svg width="51" height="50" viewBox="0 0 51 50" fill="none" xmlns="http://www.w3.org/2000/svg">
<path d="M25.7523 0C18.9627 0 18.1106 0.029688 15.4439 0.151042C12.7824 0.272917 10.9657 0.694271 9.37613 1.3125C7.73184 1.95104 6.33704 2.80521 4.94744 4.19531C3.5568 5.5849 2.70262 6.97969 2.06199 8.62344C1.44219 10.2135 1.02032 12.0307 0.900522 14.6911C0.78125 17.3578 0.75 18.2104 0.75 25C0.75 31.7896 0.780209 32.6391 0.901044 35.3057C1.02344 37.9672 1.4448 39.7839 2.06251 41.3734C2.70158 43.0177 3.55576 44.4125 4.94588 45.8021C6.33495 47.1927 7.72976 48.049 9.37301 48.6875C10.9636 49.3057 12.7809 49.7271 15.4418 49.849C18.1085 49.9703 18.9601 50 25.7492 50C32.5394 50 33.3889 49.9703 36.0556 49.849C38.7171 49.7271 40.5358 49.3057 42.1265 48.6875C43.7702 48.049 45.163 47.1927 46.552 45.8021C47.9427 44.4125 48.7969 43.0177 49.4375 41.374C50.0521 39.7839 50.474 37.9667 50.599 35.3062C50.7187 32.6396 50.75 31.7896 50.75 25C50.75 18.2104 50.7187 17.3583 50.599 14.6917C50.474 12.0302 50.0521 10.2135 49.4375 8.62396C48.7969 6.97969 47.9427 5.5849 46.552 4.19531C45.1614 2.80469 43.7708 1.95052 42.1249 1.3125C40.5311 0.694271 38.7134 0.272917 36.0519 0.151042C33.3852 0.029688 32.5363 0 25.7445 0H25.7523ZM23.5096 4.50521C24.1752 4.50417 24.918 4.50521 25.7523 4.50521C32.4274 4.50521 33.2186 4.52917 35.8545 4.64896C38.2921 4.76042 39.615 5.16771 40.4962 5.5099C41.6629 5.96302 42.4947 6.50469 43.3692 7.37969C44.2442 8.25469 44.7859 9.08802 45.24 10.2547C45.5822 11.1349 45.9901 12.4578 46.101 14.8953C46.2208 17.5307 46.2468 18.3224 46.2468 24.9943C46.2468 31.6661 46.2208 32.4578 46.101 35.0932C45.9895 37.5307 45.5822 38.8536 45.24 39.7339C44.7869 40.9005 44.2442 41.7312 43.3692 42.6057C42.4942 43.4807 41.6634 44.0224 40.4962 44.4755C39.616 44.8193 38.2921 45.2255 35.8545 45.337C33.2191 45.4568 32.4274 45.4828 25.7523 45.4828C19.0768 45.4828 18.2856 45.4568 15.6502 45.337C13.2126 45.2245 11.8897 44.8172 11.0079 44.475C9.84124 44.0219 9.0079 43.4802 8.13289 42.6052C7.25788 41.7302 6.71621 40.899 6.26204 39.7318C5.91985 38.8516 5.51203 37.5286 5.40109 35.0911C5.2813 32.4557 5.25734 31.6641 5.25734 24.988C5.25734 18.312 5.2813 17.5245 5.40109 14.8891C5.51255 12.4516 5.91985 11.1286 6.26204 10.2474C6.71517 9.08073 7.25788 8.24739 8.13289 7.37239C9.0079 6.49739 9.84124 5.95573 11.0079 5.50156C11.8892 5.15781 13.2126 4.75156 15.6502 4.63958C17.9564 4.53542 18.8502 4.50417 23.5096 4.49896V4.50521ZM39.0973 8.65625C37.441 8.65625 36.0972 9.99844 36.0972 11.6552C36.0972 13.3115 37.441 14.6552 39.0973 14.6552C40.7535 14.6552 42.0973 13.3115 42.0973 11.6552C42.0973 9.99896 40.7535 8.65521 39.0973 8.65521V8.65625ZM25.7523 12.1615C18.6622 12.1615 12.9137 17.9099 12.9137 25C12.9137 32.0901 18.6622 37.8359 25.7523 37.8359C32.8425 37.8359 38.5889 32.0901 38.5889 25C38.5889 17.9099 32.8425 12.1615 25.7523 12.1615ZM25.7523 16.6667C30.3545 16.6667 34.0858 20.3974 34.0858 25C34.0858 29.6021 30.3545 33.3333 25.7523 33.3333C21.1497 33.3333 17.4189 29.6021 17.4189 25C17.4189 20.3974 21.1497 16.6667 25.7523 16.6667Z" fill="white"/>
</svg>
