<svg width="50" height="50" viewBox="0 0 50 50" fill="none" xmlns="http://www.w3.org/2000/svg">
<rect x="2.27273" y="2.27273" width="45.4545" height="45.4545" rx="9.09091" fill="#090009" stroke="white" stroke-width="4.54545"/>
<path d="M13.6151 16.7801C15.5745 16.7801 17.1629 15.1917 17.1629 13.2323C17.1629 11.273 15.5745 9.68457 13.6151 9.68457C11.6558 9.68457 10.0674 11.273 10.0674 13.2323C10.0674 15.1917 11.6558 16.7801 13.6151 16.7801Z" fill="white"/>
<path d="M23.3975 18.6021V37.5873ZM13.6172 18.6021V37.5873Z" fill="white"/>
<path d="M23.3975 18.6021V37.5873M13.6172 18.6021V37.5873" stroke="white" stroke-width="6.32842"/>
<path d="M26.4658 27.0407C26.4658 25.123 27.7123 23.2053 29.9177 23.2053C32.2189 23.2053 33.0819 24.9312 33.0819 27.5201V37.588H39.4103V26.753C39.4103 20.904 36.342 18.2192 32.123 18.2192C28.8629 18.2192 27.2329 20.0411 26.4658 21.2876" fill="white"/>
</svg>
