<svg width="219" height="88" viewBox="0 0 219 88" fill="none" xmlns="http://www.w3.org/2000/svg">
<g clip-path="url(#clip0_876_149)">
<path fill-rule="evenodd" clip-rule="evenodd" d="M195.865 23.4811C196.212 23.883 196.544 24.3127 196.866 24.7201L215.177 3.37646L194.011 21.5463C194.661 22.1597 195.28 22.8055 195.865 23.4811Z" fill="#EBE3F8"/>
<path fill-rule="evenodd" clip-rule="evenodd" d="M198.797 27.6025C199.341 28.5426 199.833 29.5125 200.269 30.5075L218.563 29.1215L198.797 27.6025Z" fill="#EBE3F8"/>
<path fill-rule="evenodd" clip-rule="evenodd" d="M197.059 24.9804C197.428 25.4627 197.774 25.957 198.095 26.4633L208.257 21.3159L197.059 24.9804Z" fill="#EBE3F8"/>
<path fill-rule="evenodd" clip-rule="evenodd" d="M193.666 21.2271L197.245 10.3003L192.294 20.0685C192.765 20.4371 193.22 20.8252 193.666 21.2271Z" fill="#EBE3F8"/>
<path fill-rule="evenodd" clip-rule="evenodd" d="M184.478 15.9053L181.634 10.2866L183.363 15.5532C183.738 15.6724 184.112 15.7833 184.478 15.9053Z" fill="#EBE3F8"/>
<path fill-rule="evenodd" clip-rule="evenodd" d="M201.778 34.7992L208.272 36.9252L201.376 33.4326C201.52 33.8854 201.654 34.3409 201.778 34.7992Z" fill="#EBE3F8"/>
<path fill-rule="evenodd" clip-rule="evenodd" d="M190.903 19.0485L189.448 0L188.12 17.4103C189.082 17.8964 190.011 18.4436 190.903 19.0485Z" fill="#EBE3F8"/>
<path d="M174.844 36.7294L168.58 42.9937L174.844 49.2579L181.109 42.9936L174.844 36.7294Z" fill="#EBE3F8"/>
<path d="M150.111 61.4312C148.404 60.5442 147.811 56.1119 147.439 53.5978C146.918 50.7899 145.499 47.0949 142.985 45.6175C141.945 44.9522 142.467 45.174 143.506 44.287C147.143 41.4042 149.443 37.3406 148.997 32.1655C148.732 29.1277 147.615 26.2265 145.774 23.795C143.934 21.3635 141.446 19.5004 138.594 18.4196C136.517 17.6932 134.339 17.2949 132.138 17.2388H117.447C113.811 17.2388 106.016 22.7077 103.122 25.1442C99.4854 28.1767 108.763 25.2191 108.763 33.8646V56.8243C107.456 55.6449 106.409 54.205 105.692 52.5972C100.952 42.4797 96.2866 32.3623 91.555 22.242L90.1469 19.2678C87.2586 12.9423 78.2277 23.3591 76.9637 25.2191C75.0372 28.0464 84.2233 26.9293 82.5934 30.3526C79.3864 36.9636 75.9769 43.497 71.9105 49.6118C64.7036 60.4222 55.5979 68.9486 43.5013 72.4052C41.2809 73.0354 39.0277 73.5434 36.7517 73.927C34.038 74.3871 30.8697 74.9609 28.1145 74.5229C25.0349 74.0323 23.0807 72.4634 23.0807 69.2258V19.01C23.1832 10.3977 3.2588 26.2169 0.320579 28.756C-1.98287 33.0081 8.99664 32.0241 8.99664 43.8795V78.5588C9.39856 87.4927 17.9554 88.7539 28.6771 86.1289V86.1815C41.6053 83.9086 54.5584 77.3309 64.3044 68.6077C66.5911 66.5636 68.7386 64.3689 70.7325 62.0383C71.7525 60.8491 72.7421 59.6267 73.6679 58.3627C74.4357 57.3149 75.1315 56.0066 76.6311 56.0066H93.0213C95.3192 56.0066 96.9491 56.0814 98.0579 58.4625L102.216 67.316C102.978 68.9431 105.803 69.0235 107.297 69.09C113.816 69.3838 119.997 65.2648 124.724 61.0515C127.989 58.3156 120.79 60.461 119.379 54.5486C119.232 54.1051 119.305 53.9554 119.454 53.5119C120.197 50.7039 122.348 49.2265 125.17 49.2265H128.219C133.932 49.2265 134.971 49.5231 136.16 56.913C137.125 62.8976 138.905 68.9597 145.141 68.9597H145.216C149.297 68.9597 152.861 67.4795 154.197 63.269C155.159 60.1755 152.041 62.3182 150.111 61.4312ZM92.442 49.6174H82.441C81.1825 49.6174 80.4424 49.2432 81.1077 47.8295L86.8871 35.4807C87.1089 34.9595 87.1809 35.1092 87.3306 35.4058L93.1073 47.8295C93.6894 49.0879 94.0691 49.6174 92.442 49.6174ZM128.141 42.8816H125.092C119.377 42.8816 119.08 37.5624 119.08 33.3491C119.08 29.0609 119.302 23.445 125.092 23.445H128.283C132.737 23.373 138.378 26.253 138.6 32.7586C138.594 38.8069 134.004 42.8096 128.141 42.8816Z" fill="#EBE3F8"/>
<path d="M32.0369 33.6928V66.939C32.0369 68.3499 32.7049 68.9431 33.8164 68.9431C38.8059 68.9985 43.8202 68.9708 48.8208 68.9431C57.0699 65.1761 64.288 58.5457 70.7548 48.819L71.2843 48.0097C69.0446 43.1422 63.9886 40.7057 63.7669 39.098C63.62 38.1334 67.2511 35.0926 67.9247 30.1198C68.8145 23.8109 61.6963 17.7266 54.0652 17.0586C49.838 16.6871 44.8708 16.9837 40.5716 16.9837C37.0873 16.9837 29.2289 22.5497 26.4127 24.9252C22.7704 27.9799 32.0369 25.0112 32.0369 33.6928ZM48.4216 23.3037H51.3875C55.2433 23.3037 57.6132 26.0506 57.6132 29.9812C57.6132 33.8425 55.3153 36.7363 51.4596 36.7363H48.4105C44.6296 36.7363 42.4066 33.6179 42.4066 29.9812C42.4066 26.3445 44.7156 23.3037 48.4216 23.3037ZM42.4093 50.9839C42.4093 47.1254 43.6678 43.1172 48.3384 43.1172H51.3875C57.3166 43.1172 61.8404 47.2751 61.8404 53.2846C61.6907 59.89 55.9917 62.6453 51.5345 62.6453H48.3468C43.3795 62.6453 42.4093 58.1825 42.4093 54.2492V50.9839Z" fill="#EBE3F8"/>
<path d="M174.764 17.2388C166.939 17.1639 160.383 19.958 155.779 25.2939C151.696 30.0283 149.445 36.4176 149.442 43.2836C149.44 50.1496 151.679 56.5416 155.757 61.2732C160.303 66.5399 166.77 69.3284 174.467 69.3284H175.022C182.761 69.3284 189.236 66.5565 193.793 61.2732C197.876 56.5471 200.129 50.1524 200.129 43.2836C200.129 36.4148 197.87 30.0283 193.779 25.2939C189.155 19.958 182.575 17.1695 174.764 17.2388ZM186.19 56.7689C183.418 60.7798 179.468 62.9114 174.758 62.9281C170.049 62.9447 166.088 60.7798 163.319 56.7689C160.86 53.207 159.507 48.4199 159.507 43.2836C159.507 38.1472 160.86 33.3602 163.319 29.7983C166.09 25.7873 170.04 23.6585 174.747 23.6391C179.459 23.6585 183.409 25.7873 186.178 29.7983C188.634 33.3602 189.99 38.1472 189.99 43.2836C189.99 48.4199 188.645 53.2209 186.19 56.7689Z" fill="#EBE3F8"/>
</g>
<defs>
<clipPath id="clip0_876_149">
<rect width="218.559" height="87.3399" fill="white"/>
</clipPath>
</defs>
</svg>
