<svg width="41" height="41" viewBox="0 0 41 41" fill="none" xmlns="http://www.w3.org/2000/svg">
<path d="M0.0375281 20.5461C0.319578 20.5341 0.603155 20.5281 0.888134 20.5281C11.8372 20.5281 20.7132 29.485 20.7132 40.534C20.7132 40.6898 20.7114 40.8451 20.7079 41L20.7182 40.9896C20.7148 40.8382 20.7132 40.6863 20.7132 40.534C20.7132 29.485 29.5891 20.5281 40.5382 20.5281C40.6891 20.5281 40.8396 20.5298 40.9896 20.5332L41 20.5227C40.8465 20.5262 40.6925 20.5281 40.5382 20.5281C29.5891 20.5281 20.7133 11.571 20.7133 0.522029C20.7133 0.351858 20.7154 0.182181 20.7196 0.0130264L20.7067 4.074e-07C20.7111 0.17347 20.7133 0.347487 20.7133 0.522029C20.7133 11.571 11.8372 20.5281 0.888134 20.5281C0.590457 20.5281 0.294474 20.5214 -1.07986e-06 20.5083L0.0375281 20.5461Z" fill="white"/>
</svg>
