<svg width="49" height="49" viewBox="0 0 49 49" fill="none" xmlns="http://www.w3.org/2000/svg">
<path d="M23.0342 0.0282397C10.138 0.642287 -0.03901 11.3824 0.000112417 24.2933C0.0120243 28.2256 0.961356 31.9372 2.63603 35.2167L0.0648104 47.6977C-0.0742786 48.3728 0.53463 48.964 1.20532 48.8052L13.4352 45.9076C16.5773 47.4728 20.1065 48.3768 23.8416 48.4338C37.0228 48.6351 48.0136 38.1689 48.4245 24.9926C48.8648 10.8684 37.2078 -0.646768 23.0342 0.0282397ZM37.6271 37.6272C34.0455 41.2089 29.2834 43.1813 24.2183 43.1813C21.2525 43.1813 18.413 42.5159 15.7785 41.2036L14.0753 40.3552L6.57712 42.1317L8.15545 34.4699L7.31636 32.8267C5.94871 30.1483 5.25525 27.252 5.25525 24.2183C5.25525 19.153 7.22772 14.3911 10.8093 10.8093C14.359 7.2597 19.1987 5.25511 24.2186 5.25511C29.2838 5.25523 34.0456 7.2277 37.6272 10.8092C41.2089 14.3908 43.1813 19.1528 43.1815 24.2179C43.1813 29.238 41.1768 34.0777 37.6271 37.6272Z" fill="white"/>
<path d="M35.9726 29.4708L31.2815 28.1238C30.6648 27.9468 30.0006 28.1217 29.5512 28.5796L28.4041 29.7484C27.9203 30.2412 27.1864 30.3996 26.5462 30.1405C24.327 29.2425 19.659 25.092 18.4669 23.0159C18.1229 22.4171 18.1798 21.6684 18.6021 21.1219L19.6036 19.8262C19.996 19.3186 20.0788 18.6368 19.8193 18.05L17.8457 13.5861C17.3729 12.517 16.0067 12.2058 15.1141 12.9607C13.8049 14.068 12.2514 15.7507 12.0626 17.6149C11.7296 20.9017 13.1392 25.0449 18.4695 30.0199C24.6275 35.7674 29.5588 36.5267 32.7695 35.7489C34.5907 35.3079 36.046 33.5395 36.9645 32.0916C37.5907 31.1045 37.0963 29.7935 35.9726 29.4708Z" fill="white"/>
</svg>
